<?xml version="1.0" ?><svg id="Layer_1" style="enable-background:new 0 0 64 64;" version="1.1" viewBox="0 0 64 64" xml:space="preserve" xmlns="http://www.w3.org/2000/svg" xmlns:xlink="http://www.w3.org/1999/xlink"><style type="text/css">
	.st0{fill:#1379C2;}
	.st1{fill:#358DCC;}
	.st2{fill-rule:evenodd;clip-rule:evenodd;fill:#3FB754;}
	.st3{fill-rule:evenodd;clip-rule:evenodd;fill:#CCCCCC;}
	.st4{fill:#5D5E61;}
	.st5{fill:#924F34;}
	.st6{fill:#E6E6E6;}
	.st7{fill:#0F8C7E;}
	.st8{fill-rule:evenodd;clip-rule:evenodd;fill:#E6E6E6;}
	.st9{fill-rule:evenodd;clip-rule:evenodd;fill:#E6E6E6;stroke:#000000;stroke-width:0.4799;stroke-miterlimit:2.6131;}
	.st10{fill:#823B1F;}
	.st11{fill:#FFC810;}
	.st12{fill-rule:evenodd;clip-rule:evenodd;fill:#924F34;}
	.st13{fill:#E04538;}
	.st14{fill-rule:evenodd;clip-rule:evenodd;}
	.st15{fill-rule:evenodd;clip-rule:evenodd;fill:#FFC810;}
	.st16{fill-rule:evenodd;clip-rule:evenodd;fill:#E4E7E9;}
	.st17{fill:#3FB754;}
	.st18{fill-rule:evenodd;clip-rule:evenodd;fill:#5D5E61;}
	.st19{fill:#C92B1C;}
	.st20{fill:#666666;}
	.st21{fill:#FFD95E;}
	.st22{fill:#4D4D4D;}
	.st23{fill-rule:evenodd;clip-rule:evenodd;fill:#0F8C7E;}
	.st24{fill:#999999;}
	.st25{fill:#CCCCCC;}
	.st26{fill-rule:evenodd;clip-rule:evenodd;fill:#358DCC;}
	.st27{fill-rule:evenodd;clip-rule:evenodd;fill:#823B1F;}
</style><g><path class="st4" d="M29.8,5.6C16.9,6.6,6.6,16.9,5.6,29.8l2.4,0c1.2,0,2.2,1,2.2,2.2c0,1.2-1,2.2-2.2,2.2l-2.4,0   c1.1,12.9,11.3,23.1,24.2,24.2l0-2.4c0-1.2,1-2.2,2.2-2.2s2.2,1,2.2,2.2l0,2.4c12.9-1.1,23.1-11.3,24.2-24.2l-2.4,0   c-1.2,0-2.2-1-2.2-2.2c0-1.2,1-2.2,2.2-2.2l2.4,0C57.4,16.9,47.1,6.6,34.2,5.6l0,2.4c0,1.2-1,2.2-2.2,2.2c-1.2,0-2.2-1-2.2-2.2   L29.8,5.6L29.8,5.6z M30,48.1L22.3,33l0,0l0,0l0,0l0,0l0,0l0,0l0,0l0,0l0,0l0,0l0,0l0,0l0,0l0,0l0,0l0,0l0,0l0,0l0,0v0l0,0l0,0l0,0   v0l0,0v0l0-0.2l0-0.1l0-0.1l0-0.1l0-0.1l0-0.1l0-0.1l0-0.1l0-0.1l0-0.2v0l0,0v0l0,0l0,0l0,0v0l0,0l0,0l0,0l0,0l0,0l0,0l0,0l0,0l0,0   l0,0l0,0l0,0l0,0l0,0l0,0l0,0l0,0l0,0l0,0L30,15.9c0.2-0.4,0.5-0.8,1-1c1.1-0.6,2.5-0.1,3,1l7.6,14.9c0.5,0.7,0.5,1.7,0,2.4   L34,48.1c-0.6,1.1-1.9,1.5-3,1C30.5,48.9,30.2,48.5,30,48.1L30,48.1z M32,1c17.1,0,31,13.9,31,31S49.1,63,32,63S1,49.1,1,32   S14.9,1,32,1L32,1z"/><path class="st24" d="M29.8,5.6C16.9,6.6,6.6,16.9,5.6,29.8l2.4,0c1.2,0,2.2,1,2.2,2.2c0,1.2-1,2.2-2.2,2.2l-2.4,0   c1.1,12.9,11.3,23.1,24.2,24.2l0-2.4c0-1.2,1-2.2,2.2-2.2V63C14.9,63,1,49.1,1,32S14.9,1,32,1v9.2h0c-1.2,0-2.2-1-2.2-2.2L29.8,5.6   L29.8,5.6z M32,49.3V14.7c-0.3,0-0.7,0.1-1,0.2c-0.4,0.2-0.8,0.6-1,1L22.3,31l0,0l0,0l0,0l0,0l0,0l0,0l0,0l0,0l0,0l0,0l0,0l0,0l0,0   l0,0l0,0l0,0l0,0l0,0l0,0l0,0l0,0l0,0l0,0v0l0,0v0l0,0.2l0,0.1l0,0.1l0,0.1l0,0.1l0,0.1l0,0.1l0,0.1l0,0.1l0,0.2v0l0,0v0l0,0l0,0   l0,0l0,0l0,0l0,0l0,0l0,0l0,0l0,0l0,0l0,0l0,0l0,0l0,0l0,0l0,0l0,0l0,0l0,0l0,0l0,0l0,0L30,48.1c0.2,0.4,0.5,0.8,1,1   C31.3,49.3,31.7,49.3,32,49.3L32,49.3z"/><path class="st8" d="M29.8,5.6C16.9,6.6,6.6,16.9,5.6,29.8c1.6,0,4.6-0.4,4.6,2.2c0,2.7-3,2.2-4.6,2.2   c1.1,12.9,11.3,23.1,24.2,24.2c0-1.6-0.4-4.6,2.2-4.6c2.7,0,2.2,3,2.2,4.6c12.9-1.1,23.1-11.3,24.2-24.2c-1.6,0-4.6,0.4-4.6-2.2   c0-2.7,3-2.2,4.6-2.2C57.4,16.9,47.1,6.6,34.2,5.6c0,1.6,0.4,4.6-2.2,4.6C29.3,10.2,29.8,7.2,29.8,5.6L29.8,5.6z M22,32.4l0.2-1.4   L30,15.9c0.8-1.6,3.2-1.6,4,0l8,15.7l-0.3,1.6L34,48.1c-0.8,1.6-3.2,1.6-4,0L22,32.4L22,32.4z"/><path class="st3" d="M29.8,5.6C16.9,6.6,6.6,16.9,5.6,29.8c1.6,0,4.6-0.4,4.6,2.2c0,2.7-3,2.2-4.6,2.2   c1.1,12.9,11.3,23.1,24.2,24.2c0-1.6-0.4-4.6,2.2-4.6v-4.5c-0.8,0-1.6-0.4-2-1.2l-8-15.7l0.2-1.4L30,15.9c0.4-0.8,1.2-1.2,2-1.2   v-4.5h0C29.3,10.2,29.8,7.2,29.8,5.6L29.8,5.6z"/><path d="M28.8,6.6C17.2,8.1,8.1,17.2,6.6,28.8l1.3,0v0c0.9,0,1.7,0.4,2.3,0.9c0.6,0.6,0.9,1.4,0.9,2.3c0,0.9-0.4,1.7-0.9,2.3   c-0.6,0.6-1.4,0.9-2.3,0.9v0l-1.3,0c1.4,11.5,10.6,20.7,22.2,22.2l0-1.3h0c0-0.9,0.4-1.7,0.9-2.3c0.6-0.6,1.4-0.9,2.3-0.9   c0.9,0,1.7,0.4,2.3,0.9c0.6,0.6,0.9,1.4,0.9,2.3h0l0,1.3c11.5-1.4,20.7-10.6,22.2-22.2l-1.3,0v0c-0.9,0-1.7-0.4-2.3-0.9   c-0.6-0.6-0.9-1.4-0.9-2.3c0-0.9,0.4-1.7,0.9-2.3c0.6-0.6,1.4-0.9,2.3-0.9v0l1.3,0C55.9,17.2,46.8,8.1,35.2,6.6l0,1.3h0   c0,1.8-1.4,3.2-3.2,3.2s-3.2-1.4-3.2-3.2h0L28.8,6.6L28.8,6.6z M29.7,4.6l1-0.1l0,1.1l0,2.4h0c0,0.7,0.6,1.3,1.3,1.3   c0.7,0,1.3-0.6,1.3-1.3h0l0-2.4l0-1.1l1,0.1c13.3,1.1,24,11.7,25.1,25.1l0.1,1l-1.1,0l-2.4,0v0c-0.3,0-0.7,0.1-0.9,0.4   c-0.2,0.2-0.4,0.5-0.4,0.9c0,0.4,0.1,0.7,0.4,0.9c0.2,0.2,0.5,0.4,0.9,0.4v0l2.4,0l1.1,0l-0.1,1c-1.1,13.3-11.7,24-25.1,25.1   l-1,0.1v-1.1l0-2.4h0c0-0.3-0.1-0.7-0.4-0.9c-0.2-0.2-0.5-0.4-0.9-0.4c-0.4,0-0.7,0.1-0.9,0.4c-0.2,0.2-0.4,0.5-0.4,0.9h0l0,2.4   v1.1l-1-0.1c-13.3-1.1-24-11.7-25.1-25.1l-0.1-1h1.1l2.4,0v0c0.3,0,0.7-0.1,0.9-0.4C9,32.7,9.2,32.4,9.2,32c0-0.4-0.1-0.7-0.4-0.9   c-0.2-0.2-0.5-0.4-0.9-0.4v0l-2.4,0H4.5l0.1-1C5.7,16.3,16.3,5.7,29.7,4.6L29.7,4.6z M29.1,48.5l-7.7-15.1l0,0l0,0l0,0l0,0h0l0,0   l0,0l0,0l0,0l0,0l0,0h0l0,0l0,0l0,0h0l0,0l0,0l0,0l0-0.1h0l0,0v0l0,0h0l0,0l0,0l0,0l0,0l0,0v0l0,0l0,0l0,0l0,0l0,0l0,0l0,0l0,0h0   l0,0l0,0l0,0l0-0.1h0l0-0.2l0,0l0-0.1v0l0-0.1v0l0-0.1v0l0-0.1v0l0-0.1v0l0-0.1v0l0-0.1v0l0-0.1l0,0l0-0.2h0l0-0.1l0,0l0,0l0,0h0   l0,0l0,0l0,0h0l0,0l0,0l0,0l0,0l0,0l0,0v0l0,0l0,0l0,0l0,0l0,0h0l0,0v0l0,0h0l0-0.1l0,0l0,0l0,0h0l0,0l0,0l0,0h0l0,0l0-0.1l0,0l0,0   l0,0l0,0h0l0,0l0,0l0,0l0,0l7.7-15.1c0.2-0.3,0.4-0.6,0.6-0.8c1.5-1.5,4.1-1.2,5.1,0.8l0,0l7.6,14.8c0.7,1,0.6,2.3,0,3.4l-7.6,14.8   l0,0C33.7,50.9,30.3,50.9,29.1,48.5L29.1,48.5z M23.1,32.6l7.7,15.1c0.5,0.9,1.8,0.9,2.3,0l0,0l0,0l7.6-14.9c0.3-0.6,0.3-1,0-1.5   l-7.6-14.9l0,0l0,0c-0.5-0.9-1.8-0.9-2.3,0l-7.7,15.1l0,0l0,0l0,0v0l0,0.1h0l0,0l0,0l0,0l0,0l0,0h0v0l0,0l0,0l0,0l0,0l0,0l0,0l0,0   l0,0l0,0l0,0l0,0l0,0.1l0,0.1h0l0,0h0l0,0l0,0l0,0l0,0h0l0,0h0l0,0.1l0,0.1l0,0l0,0l0,0l0,0l0,0l0,0l0,0l0,0l0,0l0,0l0,0v0h0l0,0   l0,0l0,0l0,0l0,0h0L23.1,32.6L23.1,32.6L23.1,32.6L23.1,32.6L23.1,32.6L23.1,32.6z M32,0c17.7,0,32,14.3,32,32   c0,17.7-14.3,32-32,32C14.3,64,0,49.7,0,32S14.3,0,32,0L32,0z M32,1.9C15.4,1.9,1.9,15.4,1.9,32S15.4,62.1,32,62.1   c16.6,0,30.1-13.5,30.1-30.1C62.1,15.4,48.6,1.9,32,1.9L32,1.9z"/></g></svg>